<?xml version="1.0" standalone="no"?><!DOCTYPE svg PUBLIC "-//W3C//DTD SVG 1.1//EN" "http://www.w3.org/Graphics/SVG/1.1/DTD/svg11.dtd"><svg class="icon" width="200px" height="200.00px" viewBox="0 0 1024 1024" version="1.1" xmlns="http://www.w3.org/2000/svg"><path fill="#8a8a8a" d="M513.5 502.7c-132.9 0-241-108.1-241-241s108.1-241 241-241 241 108.1 241 241-108.1 241-241 241z m0-425.8c-101.9 0-184.8 82.9-184.8 184.8s82.9 184.8 184.8 184.8 184.8-82.9 184.8-184.8S615.4 76.9 513.5 76.9zM839.8 1003.8H187.3c-65.7 0-119.2-53.5-119.2-119.2 0-95.4 37.6-184.4 106-250.5 67.6-65.3 157.7-101.3 253.8-101.3h171.3c96.1 0 186.2 36 253.8 101.3 68.4 66.1 106 155 106 250.5 0 65.7-53.5 119.2-119.2 119.2zM427.9 589c-81.4 0-157.7 30.4-214.7 85.5-57.3 55.4-88.9 130-88.9 210 0 34.7 28.3 63 63 63h652.5c34.7 0 63-28.3 63-63 0-80-31.6-154.6-88.9-210-57-55.1-133.3-85.5-214.7-85.5H427.9z"  /></svg>