<?xml version="1.0" standalone="no"?><!DOCTYPE svg PUBLIC "-//W3C//DTD SVG 1.1//EN" "http://www.w3.org/Graphics/SVG/1.1/DTD/svg11.dtd"><svg class="icon" width="200px" height="200.00px" viewBox="0 0 1024 1024" version="1.1" xmlns="http://www.w3.org/2000/svg"><path fill="#8a8a8a" d="M358.4 476.9c-12.7-12.7-33.5-12.7-46.2 0l-3.4 3.4c-12.7 12.7-12.7 33.5 0 46.2l134.1 134.1c0.7 0.8 1.4 1.6 2.2 2.4l3.4 3.4c10.3 10.3 26 12.3 38.3 5.8 2.9-1.5 5.6-3.5 8-5.9l3.4-3.4c0.3-0.3 0.5-0.6 0.8-0.9l235.2-235.2c12.7-12.7 12.7-33.5 0-46.2l-3.4-3.4c-12.7-12.7-33.5-12.7-46.2 0L471.7 590.1 358.4 476.9z"  /><path fill="#8a8a8a" d="M857.6 151.5c-135.6 0-247.6-51.2-341-135.2h-3.9c-93.4 84.1-205.5 135.2-341 135.2-17.4 0-34.6-0.9-51.6-2.5v438.3c0 245.6 327.1 420.9 394.5 420.9 63.8 0 392.4-174.2 392.4-389.1V149.2c-16.3 1.5-32.7 2.3-49.4 2.3z m-8.4 467.6c0 95.8-90.7 182.4-144.8 225.5-36.8 29.3-79.5 56.9-120.3 77.8-39.5 20.2-63 26.9-69.7 28-6.8-1-30.5-7.5-69.7-27.9-41-21.3-83.7-50-120.3-80.8-44.5-37.4-79.7-77.1-104.6-117.9-27.9-45.6-42-91.5-42-136.5v-378C301.3 208 414.4 167.9 514.6 90c99.6 77.5 211.9 117.5 334.6 119.3v409.8z"  /></svg>