<?xml version="1.0" standalone="no"?><!DOCTYPE svg PUBLIC "-//W3C//DTD SVG 1.1//EN" "http://www.w3.org/Graphics/SVG/1.1/DTD/svg11.dtd"><svg class="icon" width="200px" height="200.00px" viewBox="0 0 1024 1024" version="1.1" xmlns="http://www.w3.org/2000/svg"><path fill="#8a8a8a" d="M703.5 366.8c55.2 26.4 90.9 84.1 90.9 147.1S758.7 634.6 703.5 661c-14.5 6.9-20.8 24.7-14.1 39.7 6.7 15 23.8 21.5 38.3 14.6 75.6-36.1 124.5-115.2 124.5-201.4s-48.9-165.3-124.5-201.4c-14.5-6.9-31.6-0.4-38.3 14.6-6.7 15-0.4 32.8 14.1 39.7M561.4 42.7C523.7 27 482.8 36 454.6 66.4L238.3 279.3c-3.9 3.9-10.6 9.7-20.1 13.9-10.5 4.7-19.6 5.2-22.7 5.4C122.3 303.9 77 336.7 77 336.7c-5.5 4-22.6 16.9-36.9 40C24.9 401.2 17 430.6 17 463.6v97.2c0 33.1 7.9 62.4 23.1 86.9 14.3 23 31.4 36 36.9 40 0 0 45.4 32.8 118.5 38.1 3.2 0.2 12.2 0.7 22.7 5.4 9.5 4.2 16.2 10.1 20.1 13.9L454.6 958c28.2 30.3 69.1 39.4 106.8 23.7s61.1-51.6 61.1-93.7V136.5c0-42.1-23.4-78-61.1-93.8zM74.6 512.2v-48.6c0-95.2 94.3-105.5 134.8-105.5 3 0 5.9-0.4 8.9-0.4 10-1.3 17.6-3.1 26.1-6.7 8.4-3.6 22.9-16.3 32.5-24.1C353 250.5 420 184.2 496.2 107.8c17.3-18.6 37.7-12.1 43.6-9.7 5.8 2.4 24.9 12.4 24.9 38.2v93.3h0.2v0.4l-0.1 282.1 0.1 282.1v0.4h-0.2V888c0 25.8-19.1 35.8-24.9 38.2-5.8 2.4-26.3 9-43.6-9.7-76.1-76.3-143.1-142.7-219.2-219.1-9.6-7.8-24.1-20.4-32.5-24.1-8.4-3.6-16.1-5.4-26.1-6.7-3 0-5.9-0.4-8.9-0.4-40.5 0-134.8-10.3-134.8-105.5l-0.1-48.5m490.2 0"  /><path fill="#8a8a8a" d="M956.7 322.8c-34.1-54-81.9-96.9-138.4-123.8-14.5-6.9-31.6-0.4-38.3 14.6-6.7 15-0.4 32.8 14.1 39.7 46.6 22.3 86.1 57.6 114.2 102.2 28.8 45.8 44.1 99 44.1 153.9 0 110.3-62.6 211-159.5 256.7-14.5 6.9-20.8 24.7-14.1 39.7 6.6 14.9 23.6 21.4 38 14.7 0.1 0 0.2-0.1 0.3-0.1 56.7-26.8 104.8-69.6 139.2-123.7 35.3-55.7 53.9-120.4 53.9-187.3 0-66.6-18.5-131.1-53.5-186.6z"  /></svg>