<?xml version="1.0" standalone="no"?><!DOCTYPE svg PUBLIC "-//W3C//DTD SVG 1.1//EN" "http://www.w3.org/Graphics/SVG/1.1/DTD/svg11.dtd"><svg class="icon" width="200px" height="200.00px" viewBox="0 0 1024 1024" version="1.1" xmlns="http://www.w3.org/2000/svg"><path fill="#8a8a8a" d="M513.6 134c-125.9 0-228 102.1-228 228s102.1 228 228 228 228-102.1 228-228-102.1-228-228-228z m0 398.2c-93.9 0-170.2-76.4-170.2-170.2 0-93.9 76.4-170.2 170.2-170.2S683.9 268.1 683.9 362c0 93.8-76.4 170.2-170.3 170.2z"  /><path fill="#8a8a8a" d="M240.2 458.9c21.4-8.9-2-51.3-3.6-94.8h1.3c0-152 123.7-275.6 275.7-275.6 126.9 0 234 86.2 265.9 203 1.8 18.7 9.2 44.8 8.6 70.8-1 44.1-25.4 87.6-3.7 96.6 28.3 11.8 97.3-28.2 98.9-94.4 0.9-39.5-22.6-70.8-47.9-87.4C797 135.4 667.3 30.8 513.5 30.8c-153 0-282.3 103.7-321.3 244.5-26.4 16-51.9 48.2-50.9 89.3 1.5 66.2 70.6 106.1 98.9 94.3zM833.8 695.1c-47.3-44.2-105.9-73.7-169.5-86.2-43.9 26.8-95.4 42.3-150.6 42.3-55.2 0-106.8-15.5-150.6-42.3-63.7 12.5-122.3 42-169.7 86.3-64.2 60-99.6 109.3-99.6 193.6 0 57.9 50.4 105 112.4 105H821c62 0 112.4-47.1 112.4-105-0.1-84.4-35.4-133.7-99.6-193.7zM861 920.7c-10.5 9.8-24.7 15.2-40 15.2H206.1c-15.3 0-29.5-5.4-40-15.2-9.4-8.8-14.6-20.2-14.6-32 0-30.9 5.7-54.9 18.4-77.8 12-21.6 30.8-43.6 62.8-73.5 34.1-31.9 75.8-54.9 121.4-67.2 49.1 25.4 103.7 38.8 159.4 38.8s110.3-13.3 159.4-38.7c45.6 12.3 87.2 35.3 121.3 67.1 32 29.9 50.8 51.9 62.8 73.5 12.8 23 18.4 47 18.4 77.8 0.2 11.8-5 23.1-14.4 32z"  /></svg>