<?xml version="1.0" standalone="no"?><!DOCTYPE svg PUBLIC "-//W3C//DTD SVG 1.1//EN" "http://www.w3.org/Graphics/SVG/1.1/DTD/svg11.dtd"><svg class="icon" width="200px" height="200.00px" viewBox="0 0 1024 1024" version="1.1" xmlns="http://www.w3.org/2000/svg"><path fill="#8a8a8a" d="M916.2 745.2V116.7c0-54.6-44.4-99-99-99H209.8c-54.6 0-99 44.4-99 99v791c0 54.6 44.4 99 99 99h443.3c8.7 0 17.3-3.4 23.7-9.8l229.6-229.6c5.8-5.8 9.1-13.3 9.7-21.2h0.1v-0.9zM636.5 727c-12.7 12.7-19.6 29.7-19.4 47.7l2.1 174.4H209.8c-22.8 0-41.3-18.5-41.3-41.3v-791c0-22.8 18.5-41.3 41.3-41.3h607.4c22.8 0 41.3 18.5 41.3 41.3v593l-174.3-2.1c-18-0.4-35 6.5-47.7 19.3z m40.1 188.5L674.9 774c0-3 1.3-5 2.5-6.1 1.2-1.2 3.2-2.5 6.1-2.5L825 767 676.6 915.5z"  /><path fill="#8a8a8a" d="M311.1 284.9H718c18.1 0 33-15.8 33-35.2 0-19.3-14.8-35.2-33-35.2H311.1c-18.1 0-33 15.8-33 35.2 0 19.3 14.8 35.2 33 35.2zM751 427.2c0-19.3-14.8-35.2-33-35.2H311.1c-18.1 0-33 15.8-33 35.2 0 19.3 14.8 35.2 33 35.2H718c18.1 0 33-15.8 33-35.2zM528.1 569.6h-217c-18.1 0-33 15.8-33 35.2 0 19.3 14.8 35.2 33 35.2h217c18.1 0 33-15.8 33-35.2 0-19.3-14.8-35.2-33-35.2z"  /></svg>