<?xml version="1.0" standalone="no"?><!DOCTYPE svg PUBLIC "-//W3C//DTD SVG 1.1//EN" "http://www.w3.org/Graphics/SVG/1.1/DTD/svg11.dtd"><svg class="icon" width="200px" height="200.00px" viewBox="0 0 1024 1024" version="1.1" xmlns="http://www.w3.org/2000/svg"><path fill="#8a8a8a" d="M865.7 160.1C771.6 66 646.6 14.2 513.5 14.2c-133 0-258.1 51.8-352.1 145.9-94.1 94-145.9 219.1-145.9 352.1 0 133 51.8 258.1 145.9 352.1 94.1 94.1 219.1 145.9 352.1 145.9s258.1-51.8 352.1-145.9c94.1-94.1 145.9-219.1 145.9-352.1 0-133-51.8-258.1-145.8-352.1z m-40.9 663.4c-83.2 83.2-193.7 128.9-311.3 128.9s-228.1-45.8-311.3-128.9S73.3 629.8 73.3 512.2c0-117.6 45.8-228.1 128.9-311.3C285.4 117.8 395.9 72 513.5 72c117.6 0 228.2 45.8 311.3 128.9 83.2 83.2 128.9 193.7 128.9 311.3 0.1 117.6-45.7 228.2-128.9 311.3z"  /><path fill="#8a8a8a" d="M670.2 259.2l-0.7 0.3-182.1 98.6c-66.4 31.6-96.4 61.6-128 128l-98.2 181.5-0.7 1.4c-25 52.8-13.2 80.9 1.1 95.2 8.2 8.2 21.1 15.6 40.6 15.6 14.3 0 32.3-4 54.6-14.6l0.7-0.3 182.1-98.6c66.3-31.5 96.4-61.6 127.9-127.9l98.2-181.5 0.7-1.4c25-52.8 13.2-80.9-1.1-95.2-14.1-14.3-42.3-26.1-95.1-1.1z m44.4 70.9l-98.2 181.4-0.7 1.4c-25.9 54.7-46.8 75.6-101.5 101.5l-0.7 0.3-182.1 98.5c-14.4 6.7-23.1 8.3-27.6 8.6 0.3-4.5 1.8-13.2 8.6-27.6l98.2-181.4 0.7-1.4c25.9-54.7 46.8-75.6 101.5-101.5l0.7-0.3 182.1-98.5c14.4-6.7 23.1-8.3 27.6-8.6-0.2 4.5-1.8 13.2-8.6 27.6z"  /><path fill="#8a8a8a" d="M476.8 475.5c-20.3 20.3-20.3 53.2 0 73.5 20.3 20.3 53.2 20.3 73.5 0 20.3-20.3 20.3-53.2 0-73.5-20.3-20.3-53.2-20.3-73.5 0z"  /></svg>