<?xml version="1.0" standalone="no"?><!DOCTYPE svg PUBLIC "-//W3C//DTD SVG 1.1//EN" "http://www.w3.org/Graphics/SVG/1.1/DTD/svg11.dtd"><svg class="icon" width="200px" height="200.00px" viewBox="0 0 1024 1024" version="1.1" xmlns="http://www.w3.org/2000/svg"><path fill="#8a8a8a" d="M1024 497.371429c0-98.742857-69.485714-179.2-160.914286-193.828572-18.285714-131.657143-128-230.4-259.657143-230.4-109.714286 0-204.8 69.485714-241.371428 171.885714-95.085714 40.228571-164.571429 128-175.542857 234.057143C80.457143 493.714286 0 585.142857 0 694.857143c0 120.685714 98.742857 219.428571 219.428571 219.428571h512c120.685714 0 219.428571-98.742857 219.428572-219.428571 0-14.628571 0-29.257143-3.657143-40.228572 47.542857-36.571429 76.8-95.085714 76.8-157.257142zM731.428571 841.142857H219.428571c-80.457143 0-146.285714-65.828571-146.285714-146.285714s65.828571-146.285714 146.285714-146.285714h36.571429v-36.571429c0-120.685714 98.742857-219.428571 219.428571-219.428571s219.428571 98.742857 219.428572 219.428571v36.571429h36.571428c80.457143 0 146.285714 65.828571 146.285715 146.285714s-65.828571 146.285714-146.285715 146.285714z m186.514286-259.657143c-32.914286-54.857143-87.771429-91.428571-153.6-102.4-14.628571-146.285714-138.971429-259.657143-288.914286-259.657143h-18.285714c36.571429-43.885714 87.771429-73.142857 146.285714-73.142857 102.4 0 186.514286 84.114286 186.514286 190.171429v36.571428h36.571429c69.485714 0 124.342857 54.857143 124.342857 124.342858 0 29.257143-10.971429 62.171429-32.914286 84.114285z" /></svg>