<?xml version="1.0" standalone="no"?><!DOCTYPE svg PUBLIC "-//W3C//DTD SVG 1.1//EN" "http://www.w3.org/Graphics/SVG/1.1/DTD/svg11.dtd"><svg class="icon" width="200px" height="200.00px" viewBox="0 0 1024 1024" version="1.1" xmlns="http://www.w3.org/2000/svg"><path fill="#8a8a8a" d="M865.7 160.1C771.6 66 646.6 14.2 513.5 14.2c-133 0-258.1 51.8-352.1 145.9-94.1 94-145.9 219.1-145.9 352.1s51.8 258.1 145.9 352.1 219.1 145.9 352.1 145.9c133 0 258.1-51.8 352.1-145.9 94.1-94.1 145.9-219.1 145.9-352.1s-51.8-258.1-145.8-352.1z m-40.9 663.4c-83.2 83.2-193.7 128.9-311.3 128.9s-228.1-45.8-311.3-128.9C119.1 740.4 73.3 629.8 73.3 512.2c0-117.6 45.8-228.2 128.9-311.3C285.4 117.8 395.9 72 513.5 72s228.1 45.8 311.3 128.9c83.2 83.2 128.9 193.7 128.9 311.3S908 740.4 824.8 823.5z"  /><path fill="#8a8a8a" d="M548.6 499.3V237.2c0-17.8-14.6-32.4-32.4-32.4h-5.4c-17.8 0-32.4 14.6-32.4 32.4v275.1c0 5.6 1.4 10.8 3.9 15.4 1.6 4.4 4.1 8.6 7.6 12.2l194.5 194.5c12.6 12.6 33.2 12.6 45.8 0l3.8-3.8c12.6-12.6 12.6-33.2 0-45.8L548.6 499.3z"  /></svg>