<?xml version="1.0" standalone="no"?><!DOCTYPE svg PUBLIC "-//W3C//DTD SVG 1.1//EN" "http://www.w3.org/Graphics/SVG/1.1/DTD/svg11.dtd"><svg class="icon" width="200px" height="200.00px" viewBox="0 0 1024 1024" version="1.1" xmlns="http://www.w3.org/2000/svg"><path fill="#8a8a8a" d="M904.9 169.7C832.4 97.1 736.3 57.2 634.5 57.2H392.6c-101.9 0-198 39.9-270.5 112.5S9.7 338.2 9.7 440.1s39.9 198 112.5 270.5 168.6 112.5 270.5 112.5h184.9v144.1l288.6-223.4 0.4 0.5c26.2-20.1 49.8-43.5 70.1-69.5 52.9-67.8 80.8-149 80.8-234.7-0.1-101.9-40-197.9-112.6-270.4zM891 639.3c-12.9 16.5-27.3 31.7-43 45.5L635.2 849.5v-84h-0.8v-0.1H392.6c-86.5 0-168-33.9-229.6-95.6-61.6-61.6-95.6-143.2-95.6-229.6s33.9-168 95.6-229.6S306.2 115 392.6 115h241.8c86.5 0 168 33.9 229.6 95.6 61.6 61.6 95.6 143.2 95.6 229.6 0 72.6-23.7 141.5-68.6 199.1z"  /><path fill="#8a8a8a" d="M311.1 380.7c-28.7 0-52 23.3-52 52s23.3 52 52 52 52-23.3 52-52c0-28.8-23.3-52-52-52z"  /><path fill="#8a8a8a" d="M489.711183 479.379781a52 52 0 1 0 39.799077-96.083471 52 52 0 1 0-39.799077 96.083471Z"  /><path fill="#8a8a8a" d="M708 381.7c-28.7 0-52 23.3-52 52s23.3 52 52 52 52-23.3 52-52c-0.1-28.7-23.3-52-52-52z"  /></svg>