<?xml version="1.0" standalone="no"?><!DOCTYPE svg PUBLIC "-//W3C//DTD SVG 1.1//EN" "http://www.w3.org/Graphics/SVG/1.1/DTD/svg11.dtd"><svg class="icon" width="200px" height="200.00px" viewBox="0 0 1024 1024" version="1.1" xmlns="http://www.w3.org/2000/svg"><path fill="#8a8a8a" d="M488.7 497.4c132.9 0 241-108.1 241-241s-108.1-241-241-241-241 108.1-241 241 108.1 241 241 241z m0-425.8c101.9 0 184.8 82.9 184.8 184.8s-82.9 184.8-184.8 184.8-184.8-82.9-184.8-184.8S386.8 71.6 488.7 71.6zM790.7 622.7c-106.5 0-193.2 86.7-193.2 193.2 0 106.5 86.7 193.2 193.2 193.2 106.5 0 193.2-86.7 193.2-193.2 0-106.6-86.7-193.2-193.2-193.2z m0 328.6c-74.7 0-135.4-60.7-135.4-135.4S716 680.5 790.7 680.5s135.4 60.7 135.4 135.4c0 74.6-60.7 135.4-135.4 135.4z"  /><path fill="#8a8a8a" d="M576.4 942.2h-414c-34.7 0-63-28.3-63-63 0-80 31.6-154.6 88.9-210 57.1-55.1 133.3-85.5 214.7-85.5h171.3c33 0 65.2 5 95.5 14.6 24-13.4 50.5-22.9 78.5-27.7-52.6-28.2-112.1-43.2-174.1-43.2H403c-96.1 0-186.2 36-253.8 101.3-68.4 66.1-106 155-106 250.5 0 65.7 53.5 119.2 119.2 119.2h459.3c-17.7-16.3-33-35.3-45.3-56.2zM853 785.9h-32v-32c0-18.1-11.5-33-29.7-33-18.1 0-29.7 14.8-29.7 33v32h-32c-18.1 0-33 11.5-33 29.7 0 18.1 14.8 29.7 33 29.7h32v32c0 18.1 11.5 33 29.7 33 18.1 0 29.7-14.8 29.7-33v-32h32c18.1 0 33-11.5 33-29.7s-14.8-29.7-33-29.7z"  /></svg>