<?xml version="1.0" standalone="no"?><!DOCTYPE svg PUBLIC "-//W3C//DTD SVG 1.1//EN" "http://www.w3.org/Graphics/SVG/1.1/DTD/svg11.dtd"><svg class="icon" width="200px" height="200.00px" viewBox="0 0 1024 1024" version="1.1" xmlns="http://www.w3.org/2000/svg"><path fill="#8a8a8a" d="M812.3 555.3h0.5v-407C812.8 67.9 747.4 2.5 667 2.5H213.6c-80.4 0-145.8 65.4-145.8 145.8v611.2c0 80.4 65.4 145.8 145.8 145.8h249.9v-0.6c5.5-1 10.7-3.5 14.9-7.7l326.1-326c4.4-4.4 7-9.9 7.8-15.7z m-57.2-16.8L446 847.6H213.6c-48.6 0-88.1-39.5-88.1-88.1V148.3c0-48.6 39.5-88.1 88.1-88.1H667c48.6 0 88.1 39.5 88.1 88.1v390.2zM634.9 838.1c-6.7 6.7-19.1 23.2-48.7 88.6-8.2 18.2-15.8 35.6-20.6 47-2.7 6.3-4.8 11.4-6.3 15-3.4 8.2-5.5 13.2-2.3 20.9 3.2 7.7 10.6 12.3 18.4 12.3 2.5 0 5.1-0.5 7.6-1.5 0.3-0.1 32.9-13.5 67.7-29.3 65.4-29.7 81.8-42 88.6-48.7l134.9-134.9-104.4-104.3-134.9 134.9zM937.7 639.6c-14.4-14.4-33.3-21.6-52.1-21.6-18.9 0-37.8 7.2-52.1 21.6L799 674.1l104.3 104.3 34.5-34.5c28.7-28.8 28.7-75.6-0.1-104.3z m-45.8 41.1c0.9 0.5 1.8 1.2 2.7 2.1 0.8 0.8 1.5 1.7 2.1 2.7l-4.8-4.8z"  /><path fill="#8a8a8a" d="M237.9 279.5h406.9c18.1 0 33-15.8 33-35.2s-14.8-35.2-33-35.2H237.9c-18.1 0-33 15.8-33 35.2s14.9 35.2 33 35.2zM644.8 386.7H237.9c-18.1 0-33 15.8-33 35.2 0 19.3 14.8 35.2 33 35.2h406.9c18.1 0 33-15.8 33-35.2 0-19.4-14.9-35.2-33-35.2zM455 564.3H238c-18.1 0-33 15.8-33 35.2 0 19.3 14.8 35.2 33 35.2h217c18.1 0 33-15.8 33-35.2 0-19.4-14.9-35.2-33-35.2z"  /></svg>