<?xml version="1.0" standalone="no"?><!DOCTYPE svg PUBLIC "-//W3C//DTD SVG 1.1//EN" "http://www.w3.org/Graphics/SVG/1.1/DTD/svg11.dtd"><svg class="icon" width="200px" height="200.00px" viewBox="0 0 1024 1024" version="1.1" xmlns="http://www.w3.org/2000/svg"><path fill="#8a8a8a" d="M737.4 388.1H316.8V264.7c0-50.9 20-98.9 56.2-135.2 36.3-36.3 84.3-56.2 135.2-56.2h10.7c50.9 0 98.9 20 135.2 56.2 36.3 36.3 56.2 84.3 56.2 135.2 0 15.9 12.9 28.9 28.9 28.9 16 0 28.9-12.9 28.9-28.9 0-137.4-111.8-249.1-249.1-249.1h-10.7C370.8 15.5 259 127.3 259 264.7v125.9C167.3 405.3 97 485 97 580.7v235.6c0 106.2 86.4 192.6 192.6 192.6h447.8c106.2 0 192.6-86.4 192.6-192.6V580.7c0-106.2-86.4-192.6-192.6-192.6z m134.8 428.2c0 74.3-60.5 134.8-134.8 134.8H289.6c-74.3 0-134.8-60.5-134.8-134.8V580.7c0-71 55.3-129.4 125-134.4h36.9v-0.4h420.6c74.3 0 134.8 60.5 134.8 134.8v235.6z"  /><path fill="#8a8a8a" d="M516.1 490.2c-76.6 0-139 62.4-139 139 0 36.9 14.4 71.7 40 97.6v94.6c0 54.6 44.4 99 99 99s99-44.4 99-99v-94.6c25.6-25.9 40-60.8 40-97.6 0-76.6-62.3-139-139-139z m51.7 201.7l-10.5 8.7v120.9c0 22.7-18.5 41.2-41.2 41.2-22.7 0-41.2-18.5-41.2-41.2V700.6l-10.5-8.7c-18.8-15.5-29.6-38.4-29.6-62.7 0-44.8 36.5-81.3 81.3-81.3s81.3 36.5 81.3 81.3c0 24.4-10.8 47.2-29.6 62.7z"  /></svg>