<?xml version="1.0" standalone="no"?><!DOCTYPE svg PUBLIC "-//W3C//DTD SVG 1.1//EN" "http://www.w3.org/Graphics/SVG/1.1/DTD/svg11.dtd"><svg class="icon" width="200px" height="200.00px" viewBox="0 0 1024 1024" version="1.1" xmlns="http://www.w3.org/2000/svg"><path fill="#8a8a8a" d="M908.3 715.6h-12.6V592.5c0-54.6-44.4-99-99-99H542.9V366h45.2c54.6 0 99-44.4 99-99V118.8c0-54.6-44.4-99-99-99H439.9c-54.6 0-99 44.4-99 99V267c0 54.6 44.4 99 99 99h45.2v127.5H231.3c-54.6 0-99 44.4-99 99v123.1h-13.6c-54.6 0-99 44.4-99 99v91c0 54.6 44.4 99 99 99h91c54.6 0 99-44.4 99-99v-91c0-54.6-44.4-99-99-99H190V592.5c0-22.8 18.5-41.3 41.3-41.3h253.8v164.4h-16.6c-54.6 0-99 44.4-99 99v91c0 54.6 44.4 99 99 99h91c54.6 0 99-44.4 99-99v-91c0-54.6-44.4-99-99-99h-16.6V551.2h253.8c22.8 0 41.3 18.5 41.3 41.3v123.1h-20.6c-54.6 0-99 44.4-99 99v91c0 54.6 44.4 99 99 99h91c54.6 0 99-44.4 99-99v-91c-0.1-54.6-44.5-99-99.1-99zM398.6 267V118.8c0-22.8 18.5-41.3 41.3-41.3h148.2c22.8 0 41.3 18.5 41.3 41.3V267c0 22.8-18.5 41.3-41.3 41.3H439.9c-22.8-0.1-41.3-18.6-41.3-41.3zM251.1 814.6v91c0 22.8-18.5 41.3-41.3 41.3h-91c-22.8 0-41.3-18.5-41.3-41.3v-91c0-22.8 18.5-41.3 41.3-41.3h91c22.7 0.1 41.3 18.6 41.3 41.3z m349.7 0v91c0 22.8-18.5 41.3-41.3 41.3h-91c-22.8 0-41.3-18.5-41.3-41.3v-91c0-22.8 18.5-41.3 41.3-41.3h91c22.8 0.1 41.3 18.6 41.3 41.3z m348.8 91.1c0 22.8-18.5 41.3-41.3 41.3h-91c-22.8 0-41.3-18.5-41.3-41.3v-91c0-22.8 18.5-41.3 41.3-41.3h91c22.8 0 41.3 18.5 41.3 41.3v91z"  /></svg>