<?xml version="1.0" standalone="no"?><!DOCTYPE svg PUBLIC "-//W3C//DTD SVG 1.1//EN" "http://www.w3.org/Graphics/SVG/1.1/DTD/svg11.dtd"><svg class="icon" width="200px" height="200.00px" viewBox="0 0 1024 1024" version="1.1" xmlns="http://www.w3.org/2000/svg"><path fill="#8a8a8a" d="M811.8 662.5c-47.9 0-93.6-14.9-132.3-43l-17-12.3-17 12.3c-38.7 28.1-84.5 43-132.3 43-48.2 0-94.3-15.1-133.2-43.6l-17.1-12.5-17.1 12.5c-38.9 28.5-85 43.6-133.2 43.6-31.2 0-61.4-6.3-89.9-18.7l-40.4-17.6v190.4c0 106.2 86.4 192.6 192.6 192.6h476.6c106.2 0 192.6-86.4 192.6-192.6V624.9L903.4 643c-28.9 12.9-59.7 19.5-91.6 19.5z m74.5 154.1c0 74.3-60.5 134.8-134.8 134.8H274.9c-74.3 0-134.8-60.5-134.8-134.8V710.8c23.5 6.2 47.8 9.4 72.6 9.4 53.7 0 105.2-14.9 150.3-43.2 45.1 28.3 96.6 43.2 150.3 43.2 53.3 0 104.5-14.7 149.3-42.6 44.8 27.9 96 42.6 149.3 42.6 25.5 0 50.4-3.3 74.5-9.9v106.3zM1005.3 359.1c-0.5-2.3-1.3-5.1-2.3-8.4l0.2-0.1-1.4-3.6c-5.8-18.3-16-45.7-21.4-56l-58.5-153c-27.1-73.5-97.8-122.7-176-122.7h-464c-38.5 0-75.6 11.6-107.2 33.6-31.6 21.9-55.4 52.6-68.8 88.6l-59 153.4c-6.2 11.4-16.8 39.6-22.5 58.4l-0.5 1.2h0.1c-1.1 3.8-2.1 7.2-2.7 9.9-2.9 12.8-4.5 26.1-4.5 39.8 0 98.3 80.1 178.3 178.5 178.3 69.3 0 129.4-39.6 159-97.3 29.6 57.7 89.8 97.3 159 97.3 69.3 0 129.4-39.6 159-97.3 29.6 57.7 89.8 97.3 159 97.3 98.4 0 178.5-80 178.5-178.3 0.3-14.2-1.3-27.9-4.5-41.1z m-173.7 158c-64.6 0-117.1-52.5-117.1-117 0-0.4 0-0.8-0.1-1.1 0-0.7 0.1-1.5 0.1-2.2 0-23.2-18.8-41.9-41.9-41.9s-41.9 18.8-41.9 41.9c0 0.8 0 1.5 0.1 2.3 0 0.4-0.1 0.7-0.1 1.1 0 64.5-52.5 117-117.1 117s-117.1-52.5-117.1-117c0-0.6 0-1.1-0.1-1.6 0-0.8 0.1-1.5 0.1-2.3 0-23.2-18.8-41.9-41.9-41.9-23.2 0-41.9 18.8-41.9 41.9 0 1 0 1.9 0.1 2.9 0 0.3-0.1 0.7-0.1 1 0 64.5-52.5 117-117.1 117s-117.1-52.5-117.1-117c0-13.5 2.3-26.4 6.5-38.4h0.1l23.7-70.7 51.2-133 0.1-0.3C178.8 107.1 227.8 73 281.9 73h464c54.2 0 103.2 34.2 122 85l50.8 133 22.8 69.4h0.2c4.5 12.4 7 25.8 7 39.8 0 64.5-52.6 116.9-117.1 116.9z"  /></svg>